<?xml version="1.0" standalone="no"?>
<!DOCTYPE svg PUBLIC "-//W3C//DTD SVG 20010904//EN"
 "http://www.w3.org/TR/2001/REC-SVG-20010904/DTD/svg10.dtd">
<svg version="1.0" xmlns="http://www.w3.org/2000/svg"
 width="512.000000pt" height="512.000000pt" viewBox="0 0 512.000000 512.000000"
 preserveAspectRatio="xMidYMid meet">
<metadata>
Created by potrace 1.11, written by Peter Selinger 2001-2013
</metadata>
<g transform="translate(0.000000,512.000000) scale(0.100000,-0.100000)"
fill="#000000" stroke="none">
<path d="M2372 5020 c-9 -22 -20 -40 -24 -40 -4 0 -24 15 -45 33 -39 34 -37
27 9 -37 l28 -39 -70 -30 c-38 -16 -70 -33 -70 -38 0 -5 -5 -9 -11 -9 -7 0
-31 -16 -55 -35 -44 -37 -64 -43 -64 -22 -1 15 -39 66 -40 51 0 -6 7 -28 15
-48 l15 -36 -45 0 c-28 0 -44 -4 -40 -10 3 -5 16 -10 29 -10 37 0 37 -9 -5
-70 -21 -31 -39 -61 -39 -64 0 -4 -9 -26 -19 -49 -35 -76 -47 -180 -45 -366 2
-95 5 -181 9 -190 3 -9 -8 0 -25 19 -32 37 -39 30 -16 -16 8 -15 13 -31 11
-35 -3 -4 -25 -6 -50 -5 -59 4 -48 -12 16 -20 27 -4 52 -11 56 -17 3 -5 8
-112 10 -236 2 -124 5 -254 7 -289 2 -50 1 -60 -10 -51 -15 12 -13 -6 5 -53
12 -31 6 -38 -31 -34 -48 5 -54 -12 -7 -21 l44 -9 2 -109 c2 -61 5 -252 8
-425 3 -173 7 -321 10 -329 5 -11 3 -12 -10 -1 -12 10 -15 10 -15 -2 0 -8 5
-19 12 -26 7 -7 8 -12 4 -12 -5 0 -3 -6 3 -14 16 -19 -12 -35 -52 -31 -38 5
-24 -13 18 -21 19 -3 35 -7 36 -8 0 0 3 -82 5 -181 2 -99 5 -213 7 -253 2 -62
1 -72 -13 -67 -8 4 -19 7 -25 8 -21 4 -95 58 -138 102 -45 45 -100 144 -111
200 -15 80 -17 110 -18 240 0 77 1 151 1 164 1 22 4 23 54 18 l52 -6 -48 22
-47 22 37 38 c40 40 19 43 -24 4 -13 -11 -23 -16 -24 -11 0 5 -1 214 -2 465
-2 448 -2 455 18 457 11 1 34 6 50 11 27 8 25 9 -22 10 -29 1 -53 5 -53 10 0
5 7 26 16 47 l16 39 -23 -22 -24 -21 -43 66 c-44 69 -111 125 -182 152 -19 7
-36 15 -38 16 -2 1 4 14 13 28 20 31 6 35 -20 6 -28 -31 -52 -25 -59 15 -9 47
-22 52 -18 6 l4 -38 -64 -5 c-97 -9 -165 -38 -243 -106 -27 -24 -63 -71 -81
-109 -19 -39 -22 -41 -37 -25 -16 15 -17 15 -17 0 0 -9 5 -20 10 -23 6 -3 10
-17 10 -31 0 -21 -4 -24 -27 -19 -16 2 -34 1 -41 -4 -10 -6 -3 -10 22 -15 35
-7 45 -24 36 -61 -2 -5 -2 -26 0 -45 1 -19 2 -42 1 -50 0 -8 0 -40 0 -70 1
-30 1 -62 0 -70 -1 -8 -1 -31 0 -50 1 -19 1 -41 0 -47 -1 -7 -1 -20 -1 -28 0
-8 0 -23 0 -32 0 -10 0 -34 1 -53 1 -19 1 -42 0 -50 -1 -8 -1 -37 -2 -64 l0
-49 -34 33 c-43 42 -46 28 -4 -23 21 -25 26 -37 16 -37 -8 0 -30 -7 -48 -15
l-34 -16 53 4 53 4 0 -106 c0 -116 -1 -135 -2 -153 0 -7 0 -84 1 -171 1 -88
-1 -161 -3 -163 -3 -3 -11 1 -18 8 -54 51 -68 41 -18 -13 l30 -32 -43 -15
c-61 -20 -61 -26 0 -19 58 7 57 7 66 -58 3 -22 8 -53 11 -70 3 -16 7 -39 9
-50 14 -77 112 -311 142 -336 8 -6 14 -17 14 -23 0 -15 59 -85 145 -173 65
-66 254 -203 281 -203 6 0 23 -9 38 -21 14 -11 26 -17 26 -14 0 4 6 3 13 -2
19 -16 215 -80 282 -93 33 -6 71 -14 85 -16 14 -3 32 -6 41 -7 12 -1 17 -12
17 -47 1 -25 4 -198 8 -385 4 -187 7 -361 8 -387 0 -44 2 -48 26 -49 14 -1 29
-1 34 0 6 1 26 2 45 2 30 -1 323 -1 495 -1 27 0 51 -2 54 -4 2 -3 14 -1 27 4
13 5 25 6 29 3 3 -3 76 -5 163 -4 246 2 254 2 264 -4 19 -12 24 37 24 219 0
102 1 186 1 186 1 0 18 -7 37 -15 42 -17 71 -20 62 -5 -4 6 -9 8 -13 6 -4 -2
-19 6 -34 18 l-27 21 29 20 c46 31 46 48 0 25 -22 -11 -43 -20 -47 -20 -4 0
-7 83 -5 185 2 102 4 185 6 185 2 0 22 -7 45 -15 52 -18 55 0 4 22 l-38 15 40
34 c45 38 38 44 -16 15 l-35 -19 2 201 c1 111 3 217 3 235 1 30 3 33 34 31 48
-3 81 0 75 7 -5 5 -43 12 -75 13 -19 1 -16 19 7 48 30 39 24 50 -10 18 l-30
-29 0 97 c0 71 3 97 13 98 59 4 216 45 307 81 295 116 552 341 680 595 37 74
75 176 84 225 3 13 5 25 6 28 3 8 7 24 8 37 1 8 17 3 45 -12 58 -34 66 -31 22
9 l-38 33 31 19 c18 10 32 22 32 26 0 11 -2 10 -43 -7 -20 -8 -38 -15 -39 -15
-4 0 0 372 5 376 1 2 26 -3 55 -10 29 -8 52 -12 52 -10 0 2 -18 13 -40 24 -22
11 -40 23 -40 26 0 4 15 19 32 35 45 38 32 44 -20 8 -25 -17 -42 -23 -42 -16
-1 20 -1 420 -1 447 1 25 4 26 51 24 27 -2 52 2 55 7 4 5 -3 10 -14 10 -12 1
-25 3 -31 4 -5 1 -17 3 -25 4 -13 1 -10 10 12 49 22 37 23 44 8 32 -11 -8 -29
-26 -42 -40 -16 -18 -22 -21 -23 -10 0 8 -13 43 -30 78 -60 127 -191 218 -342
237 -16 2 -32 5 -33 7 -2 2 6 23 17 46 25 55 18 63 -13 17 -23 -33 -39 -44
-39 -27 0 4 -11 21 -25 37 l-24 30 8 -31 c5 -17 14 -41 20 -52 15 -27 15 -27
-16 -28 -72 -4 -189 -52 -243 -101 l-35 -33 -22 48 -22 47 5 -49 c5 -48 5 -48
-23 -44 -15 3 -37 9 -48 13 -18 8 -18 7 -7 -8 8 -9 29 -22 48 -29 19 -7 33
-15 31 -18 -2 -3 -16 -32 -32 -65 l-30 -60 -5 -470 -5 -470 -28 -58 c-29 -57
-119 -160 -168 -191 l-26 -17 2 158 c2 87 3 161 4 166 0 4 27 7 58 7 76 0 58
17 -20 19 l-28 1 19 28 c11 15 23 38 27 50 6 20 1 17 -27 -13 l-34 -37 3 79
c1 43 2 137 2 209 l1 132 33 0 c106 -2 98 16 -11 21 -8 1 -4 14 13 38 33 50
32 63 -4 29 l-29 -28 4 299 c7 611 7 728 -4 756 -7 15 -9 27 -7 27 9 0 -39
116 -72 171 -38 66 -116 150 -185 198 l-47 34 39 31 c50 40 51 52 0 26 -48
-25 -45 -25 -48 3 -8 81 -22 86 -22 7 0 -49 -3 -60 -12 -52 -21 17 -138 53
-192 59 -68 7 -118 7 -195 -2 -62 -7 -63 -7 -52 14 7 11 10 21 7 21 -2 0 0 16
4 35 10 47 2 44 -18 -5z"/>
</g>
</svg>
